<svg width="43" height="42" viewBox="0 0 43 42" fill="none" xmlns="http://www.w3.org/2000/svg">
<path d="M19.388 5.2425C19.987 4.76192 20.732 4.50001 21.5 4.50001C22.268 4.50001 23.013 4.76192 23.612 5.2425L35.237 14.5695C35.6312 14.8857 35.9493 15.2865 36.1679 15.7421C36.3865 16.1977 36.5 16.6966 36.5 17.202V34.122C36.5 35.0171 36.1444 35.8756 35.5115 36.5085C34.8786 37.1414 34.0201 37.497 33.125 37.497H28.625C27.7299 37.497 26.8715 37.1414 26.2385 36.5085C25.6056 35.8756 25.25 35.0171 25.25 34.122V25.122C25.25 24.8236 25.1315 24.5375 24.9205 24.3265C24.7095 24.1155 24.4234 23.997 24.125 23.997H18.875C18.5766 23.997 18.2905 24.1155 18.0795 24.3265C17.8685 24.5375 17.75 24.8236 17.75 25.122V34.122C17.75 35.0171 17.3944 35.8756 16.7615 36.5085C16.1286 37.1414 15.2701 37.497 14.375 37.497H9.875C8.98015 37.497 8.12194 37.1416 7.48904 36.509C6.85615 35.8764 6.5004 35.0183 6.5 34.1235V17.2035C6.5 16.1805 6.965 15.2115 7.763 14.571L19.388 5.244V5.2425ZM22.2035 6.9975C22.0039 6.83756 21.7558 6.75041 21.5 6.75041C21.2442 6.75041 20.9961 6.83756 20.7965 6.9975L9.1715 16.3245C9.04002 16.4299 8.93388 16.5634 8.86092 16.7153C8.78797 16.8672 8.75006 17.0335 8.75 17.202V34.122C8.75 34.7445 9.254 35.247 9.875 35.247H14.375C14.6734 35.247 14.9595 35.1285 15.1705 34.9175C15.3815 34.7065 15.5 34.4204 15.5 34.122V25.122C15.5 24.2269 15.8556 23.3685 16.4885 22.7355C17.1215 22.1026 17.9799 21.747 18.875 21.747H24.125C25.0201 21.747 25.8786 22.1026 26.5115 22.7355C27.1444 23.3685 27.5 24.2269 27.5 25.122V34.122C27.5 34.7445 28.004 35.247 28.625 35.247H33.125C33.4234 35.247 33.7095 35.1285 33.9205 34.9175C34.1315 34.7065 34.25 34.4204 34.25 34.122V17.202C34.2501 17.0336 34.2124 16.8674 34.1398 16.7155C34.0671 16.5636 33.9612 16.43 33.83 16.3245L22.205 6.9975H22.2035Z" fill="white"/>
</svg>
