<svg width="22" height="22" viewBox="0 0 22 22" fill="none" xmlns="http://www.w3.org/2000/svg">
<path d="M3.4375 9.625C3.25516 9.625 3.0803 9.55257 2.95136 9.42363C2.82243 9.2947 2.75 9.11984 2.75 8.9375V3.43887C2.75 3.25654 2.82243 3.08167 2.95136 2.95274C3.0803 2.82381 3.25516 2.75137 3.4375 2.75137H8.9375C9.11984 2.75137 9.2947 2.82381 9.42364 2.95274C9.55257 3.08167 9.625 3.25654 9.625 3.43887V8.9375C9.625 9.11984 9.55257 9.2947 9.42364 9.42363C9.2947 9.55257 9.11984 9.625 8.9375 9.625H3.4375ZM13.0625 9.625C12.8802 9.625 12.7053 9.55257 12.5764 9.42363C12.4474 9.2947 12.375 9.11984 12.375 8.9375V3.43887C12.375 3.25654 12.4474 3.08167 12.5764 2.95274C12.7053 2.82381 12.8802 2.75137 13.0625 2.75137H18.5611C18.7435 2.75137 18.9183 2.82381 19.0473 2.95274C19.1762 3.08167 19.2486 3.25654 19.2486 3.43887V8.9375C19.2486 9.11984 19.1762 9.2947 19.0473 9.42363C18.9183 9.55257 18.7435 9.625 18.5611 9.625H13.0625ZM3.4375 19.25C3.25516 19.25 3.0803 19.1776 2.95136 19.0486C2.82243 18.9197 2.75 18.7448 2.75 18.5625V13.0625C2.75 12.8802 2.82243 12.7053 2.95136 12.5764C3.0803 12.4474 3.25516 12.375 3.4375 12.375H8.9375C9.11984 12.375 9.2947 12.4474 9.42364 12.5764C9.55257 12.7053 9.625 12.8802 9.625 13.0625V18.5625C9.625 18.7448 9.55257 18.9197 9.42364 19.0486C9.2947 19.1776 9.11984 19.25 8.9375 19.25H3.4375ZM13.0625 19.25C12.8802 19.25 12.7053 19.1776 12.5764 19.0486C12.4474 18.9197 12.375 18.7448 12.375 18.5625V13.0625C12.375 12.8802 12.4474 12.7053 12.5764 12.5764C12.7053 12.4474 12.8802 12.375 13.0625 12.375H18.5611C18.7435 12.375 18.9183 12.4474 19.0473 12.5764C19.1762 12.7053 19.2486 12.8802 19.2486 13.0625V18.5625C19.2486 18.7448 19.1762 18.9197 19.0473 19.0486C18.9183 19.1776 18.7435 19.25 18.5611 19.25H13.0625Z" fill="white"/>
</svg>
